<?xml version="1.0" standalone="no"?>
<!DOCTYPE svg PUBLIC "-//W3C//DTD SVG 20010904//EN"
 "http://www.w3.org/TR/2001/REC-SVG-20010904/DTD/svg10.dtd">
<svg version="1.0" xmlns="http://www.w3.org/2000/svg"
 width="300.000000pt" height="300.000000pt" viewBox="0 0 300.000000 300.000000"
 preserveAspectRatio="xMidYMid meet">
<metadata>
Created by potrace 1.10, written by Peter Selinger 2001-2011
</metadata>
<g transform="translate(0.000000,300.000000) scale(0.100000,-0.100000)"
fill="#000000" stroke="none">
<path d="M1310 2674 c-312 -37 -547 -144 -686 -312 -95 -115 -130 -217 -122
-348 8 -122 73 -228 185 -305 24 -17 58 -35 76 -41 80 -27 78 -58 -7 -116 -66
-45 -134 -107 -174 -158 -31 -38 -72 -123 -72 -147 0 -10 -5 -28 -11 -40 -7
-11 -12 -63 -11 -116 0 -177 69 -332 199 -451 122 -111 249 -173 422 -206 117
-22 289 -9 416 32 23 7 74 15 115 19 169 15 383 78 520 153 87 47 132 82 213
164 74 74 133 182 163 295 28 104 3 235 -64 339 -40 61 -144 164 -167 164 -7
0 -18 6 -24 14 -9 11 -1 23 39 57 119 103 164 267 126 450 -8 37 -26 90 -41
118 -27 55 -169 211 -190 211 -8 0 -15 4 -17 9 -1 5 -32 26 -68 48 -107 65
-265 123 -407 149 -85 15 -341 27 -413 18z m332 -45 c111 -19 210 -41 260 -60
29 -11 58 -21 63 -23 23 -5 134 -62 185 -94 71 -45 199 -176 227 -232 75 -150
82 -323 17 -422 -13 -21 -24 -42 -24 -47 0 -14 -72 -76 -125 -106 l-47 -28 53
-25 c196 -94 300 -298 255 -502 -9 -41 -55 -149 -80 -188 -43 -67 -196 -212
-225 -212 -5 0 -11 -3 -13 -8 -3 -7 -99 -56 -178 -90 -25 -11 -76 -27 -115
-36 -38 -9 -79 -19 -90 -22 -25 -7 -160 -28 -345 -55 -150 -22 -286 -29 -355
-17 -79 13 -205 64 -305 123 -50 30 -145 125 -184 184 -44 65 -84 156 -92 209
-15 91 -15 127 1 203 20 99 49 157 113 226 49 52 142 124 187 145 22 10 25 17
25 64 0 50 -2 54 -27 59 -77 16 -197 105 -245 183 -38 62 -55 145 -46 225 5
40 12 81 17 92 5 11 17 36 26 56 9 20 43 68 75 107 126 150 325 245 605 290
68 11 322 11 387 1z"/>
<path d="M1350 2530 c-30 -5 -75 -16 -100 -24 l-45 -15 40 6 c22 3 38 3 35 0
-3 -3 -33 -10 -67 -16 -110 -17 -226 -84 -327 -186 -79 -80 -107 -142 -96
-212 9 -57 30 -102 56 -124 16 -13 17 -11 11 26 -13 79 49 223 132 306 53 53
141 118 191 142 62 29 171 69 176 64 3 -3 -16 -13 -43 -23 -26 -10 -59 -24
-73 -31 -14 -7 -28 -13 -32 -13 -14 0 -109 -62 -104 -68 3 -2 16 2 29 11 13 8
41 23 63 32 l39 16 -43 -41 c-50 -49 -108 -134 -142 -207 -20 -46 -21 -55 -9
-70 13 -16 12 -17 -3 -5 -15 12 -16 6 -18 -70 -1 -46 -3 -103 -4 -127 0 -24
-6 -46 -11 -48 -34 -11 -125 113 -125 169 0 50 89 224 130 254 29 22 80 74 72
74 -17 0 -121 -108 -148 -155 -47 -78 -64 -134 -65 -213 -2 -74 -2 -74 37
-108 96 -86 258 -142 479 -168 l110 -12 -39 -17 c-48 -21 -84 -21 -216 2 -262
45 -450 183 -476 349 -4 24 -10 38 -14 32 -11 -18 8 -100 34 -144 34 -58 60
-82 135 -130 96 -61 174 -93 276 -111 50 -9 107 -19 128 -23 61 -11 48 -27
-24 -30 -74 -3 -238 27 -324 59 -123 46 -249 153 -285 242 l-21 52 4 -41 c5
-48 60 -129 115 -169 20 -16 42 -33 47 -39 12 -13 56 -39 103 -61 41 -20 40
-28 -4 -44 -43 -15 -62 -4 -45 27 9 16 7 21 -9 25 -18 5 -20 0 -20 -53 l0 -58
75 24 c72 23 185 33 185 16 0 -4 -30 -16 -67 -26 -219 -62 -398 -198 -454
-346 -29 -75 -23 -174 15 -247 14 -29 28 -53 30 -53 6 0 -10 55 -19 70 -4 6
-2 17 5 25 8 10 8 15 -1 21 -8 4 -9 3 -5 -4 4 -7 3 -12 -3 -12 -14 0 -25 63
-18 110 8 64 51 143 109 201 107 108 366 236 498 247 60 5 64 4 51 -11 -7 -10
-19 -17 -27 -17 -27 0 -284 -129 -347 -174 -36 -26 -92 -76 -126 -111 -69 -74
-106 -133 -42 -68 42 43 141 104 112 69 -7 -9 -19 -16 -25 -16 -18 0 -86 -60
-86 -76 0 -8 -5 -14 -11 -14 -23 0 -50 -88 -52 -174 -1 -46 1 -82 5 -80 4 2 9
-5 13 -15 10 -32 98 -105 167 -138 34 -17 92 -37 127 -43 87 -16 241 -3 241
20 0 5 8 6 18 3 19 -5 86 21 222 84 179 84 229 106 287 128 120 45 217 125
258 212 9 19 18 60 20 91 3 46 2 50 -4 22 -5 -19 -9 -28 -10 -20 -2 27 -71
117 -110 144 -60 42 -156 57 -280 45 -153 -16 -169 -29 -31 -27 134 2 213 -7
255 -30 35 -20 83 -70 91 -94 3 -10 10 -18 15 -18 5 0 8 -3 7 -8 -1 -4 2 -24
6 -45 10 -46 -6 -88 -46 -122 -34 -29 -59 -34 -36 -7 8 9 20 37 27 62 15 55
-2 121 -42 166 -14 16 -34 39 -44 51 -16 17 -30 22 -71 21 -61 0 -61 -13 -1
-21 77 -10 149 -92 149 -171 0 -89 -87 -186 -167 -186 -36 0 -47 -20 -10 -21
43 -1 -66 -36 -135 -43 -102 -11 -269 19 -253 45 4 5 -3 9 -14 9 -20 0 -21 5
-21 185 0 102 -3 185 -6 185 -3 0 -33 -16 -65 -35 -33 -19 -62 -35 -64 -35 -2
0 -32 -13 -67 -29 -35 -16 -101 -42 -148 -57 -47 -16 -86 -32 -88 -36 -2 -5
-9 -8 -15 -8 -7 0 -30 -9 -51 -21 -26 -14 -42 -17 -49 -10 -15 15 14 53 68 92
25 18 45 36 45 41 0 4 6 8 14 8 33 0 208 65 296 109 75 38 348 206 369 226 2
3 -3 5 -11 5 -9 0 -76 -36 -149 -81 -74 -45 -161 -95 -193 -111 -79 -40 -229
-98 -238 -92 -15 9 -8 23 15 29 70 20 187 79 297 150 183 119 238 151 305 176
33 12 62 25 65 29 3 4 30 13 60 20 30 7 63 17 72 21 9 5 35 11 58 14 102 13
223 83 234 136 13 68 6 113 -27 174 -102 183 -368 231 -599 107 -37 -19 -79
-47 -92 -61 l-25 -26 200 3 c240 4 276 -4 339 -75 22 -25 40 -54 40 -64 0 -10
5 -21 11 -25 8 -4 9 1 4 17 -15 51 -39 90 -64 108 -62 44 -97 51 -267 52 -135
1 -164 4 -164 15 0 12 21 26 60 39 3 1 22 10 44 19 40 18 86 18 88 1 2 -21 43
-38 99 -41 84 -4 130 -19 176 -58 37 -33 93 -129 96 -165 2 -37 -15 -71 -43
-86 -30 -15 -30 -15 -30 12 l0 28 -16 -30 c-19 -37 -44 -65 -57 -65 -6 0 2 14
19 31 26 27 29 37 29 97 0 60 -3 70 -30 101 -60 67 -79 71 -320 71 l-215 0 0
-181 0 -180 88 1 c132 2 161 0 137 -9 -11 -4 -68 -5 -127 -3 l-108 4 0 185 0
186 -20 -26 c-57 -73 -83 -200 -56 -276 9 -24 15 -46 13 -48 -10 -9 -96 37
-100 54 -16 55 -17 87 -3 147 21 89 66 164 138 231 62 57 73 84 19 46 -49 -35
-126 -128 -157 -189 -26 -52 -29 -66 -28 -153 1 -87 -1 -96 -17 -92 -41 11
-50 123 -16 220 66 192 321 343 576 343 47 0 105 -5 128 -10 67 -16 150 -59
202 -106 53 -48 61 -51 61 -30 0 22 -90 92 -168 131 -38 19 -99 40 -136 46
-46 9 -66 17 -66 27 0 12 12 14 70 8 222 -20 412 -179 414 -345 0 -78 -30
-139 -107 -216 -52 -52 -83 -72 -182 -119 -201 -94 -307 -158 -430 -260 -27
-23 -68 -53 -90 -67 l-40 -26 3 -185 3 -184 112 -1 c123 0 111 15 -18 21 l-70
4 -3 150 -3 151 28 15 28 15 -30 2 c-27 2 -27 2 -6 6 22 4 87 46 101 65 16 21
127 59 199 69 102 14 191 0 277 -41 120 -58 178 -150 178 -280 1 -82 -23 -149
-56 -158 -10 -2 -18 -8 -18 -13 0 -5 -5 -9 -10 -9 -6 0 -29 -12 -53 -27 l-42
-26 54 59 c57 62 90 122 91 164 0 18 -8 9 -29 -35 -58 -120 -111 -165 -339
-282 -81 -42 -185 -100 -232 -128 -192 -117 -247 -139 -370 -150 -59 -5 -92
-2 -154 14 -44 12 -82 19 -84 16 -3 -3 -3 -5 0 -5 3 0 36 -11 74 -25 69 -25
198 -36 226 -19 7 4 8 3 4 -4 -18 -29 71 5 146 55 42 28 92 53 106 53 4 0 0
-5 -8 -10 -8 -5 -10 -10 -3 -10 6 0 -1 -13 -17 -30 -35 -38 -72 -116 -68 -144
3 -16 11 -7 37 41 71 132 185 228 376 318 252 118 300 145 354 197 63 62 101
135 101 198 1 44 1 44 15 20 26 -48 28 -129 4 -205 -19 -62 -29 -78 -93 -140
-74 -73 -117 -98 -321 -188 -122 -53 -178 -88 -228 -140 -42 -44 -72 -85 -66
-91 4 -4 70 7 139 24 30 8 29 8 -11 3 -30 -3 -49 -1 -54 6 -12 20 76 90 175
138 52 25 108 53 123 61 15 7 35 11 43 8 8 -3 13 -2 10 3 -5 8 81 51 103 51 5
0 11 6 14 13 2 6 7 9 11 5 17 -15 -171 -123 -247 -142 -15 -3 -42 -16 -60 -27
l-32 -21 30 6 c181 38 366 146 470 275 190 235 190 534 0 674 -24 17 -44 34
-45 37 0 3 25 18 55 34 63 33 138 104 165 156 44 85 60 193 41 275 -6 24 -8
15 -13 -40 -7 -92 -51 -180 -126 -253 -73 -71 -138 -99 -260 -113 -185 -20
-251 -36 -348 -84 -96 -47 -104 -50 -104 -37 0 21 187 114 324 161 214 73 267
108 314 210 21 46 24 63 20 130 -5 89 -29 143 -92 211 -22 24 -32 38 -20 30
11 -8 0 4 -25 28 -43 40 -70 55 -55 30 4 -7 3 -8 -5 -4 -6 4 -9 12 -6 17 4 5
-25 24 -64 43 -128 61 -326 69 -491 20 -59 -18 -64 -29 -5 -13 21 6 51 9 66 7
15 -3 26 -1 23 4 -3 4 19 8 48 8 47 -1 51 -2 35 -14 -14 -11 -15 -15 -5 -19 7
-3 0 -6 -17 -7 -16 -1 -39 -3 -49 -5 -10 -2 -25 2 -32 10 -10 10 -24 11 -56 4
-60 -14 -197 -83 -247 -125 -22 -19 -45 -33 -50 -30 -5 4 -13 1 -17 -5 -4 -8
-3 -9 4 -5 7 4 12 3 12 -1 0 -5 -9 -13 -19 -20 -10 -6 -34 -35 -52 -62 -35
-55 -49 -63 -49 -28 1 64 85 179 186 254 111 84 260 133 409 134 72 0 85 2 65
11 -33 14 -300 19 -370 8z m-444 -307 c-19 -38 -42 -86 -51 -108 l-17 -40 -10
29 c-8 23 -6 37 11 70 17 36 86 116 98 116 2 0 -12 -30 -31 -67z m899 -1 c68
-24 132 -67 154 -102 10 -17 20 -27 23 -24 9 8 38 -86 38 -123 0 -19 -8 -48
-17 -66 l-17 -32 -7 61 c-8 83 -51 159 -113 201 -59 40 -103 53 -183 53 -66 0
-88 14 -58 37 26 18 120 16 180 -5z m-30 -170 c52 -36 77 -84 72 -138 -6 -54
-30 -79 -101 -104 -65 -22 -203 -54 -226 -51 -8 0 -55 4 -105 8 l-90 8 -3 139
c-2 93 1 143 9 152 9 11 52 14 208 14 l196 -1 40 -27z m420 -22 c4 -16 1 -46
-7 -67 -12 -36 -56 -113 -65 -113 -8 0 7 55 17 58 5 2 10 12 10 22 0 10 5 22
10 25 6 4 8 10 5 15 -3 5 0 12 6 15 6 5 8 21 4 41 -7 42 11 46 20 4z m-924
-87 c0 -21 2 -49 4 -63 5 -42 -7 -111 -19 -107 -20 7 -30 95 -17 153 14 62 31
71 32 17z m853 -25 c-29 -57 -66 -98 -109 -123 -57 -34 -66 -31 -19 6 53 42
96 90 119 133 24 45 33 30 9 -16z m179 -185 c-7 -3 -13 -10 -13 -16 -1 -28
-88 -66 -97 -42 -3 11 56 41 72 36 6 -1 7 1 2 5 -4 4 1 16 10 26 12 14 19 16
27 7 8 -8 7 -13 -1 -16z m-113 -73 c0 -5 -4 -10 -9 -10 -5 0 -17 -7 -26 -16
-10 -10 -24 -14 -40 -10 -34 9 -31 21 8 34 43 13 67 14 67 2z m-82 -75 c81
-36 162 -122 185 -196 31 -95 15 -241 -31 -282 -16 -14 -17 -10 -18 56 -3 164
-98 300 -262 373 -45 21 -69 24 -165 24 -109 1 -111 1 -82 17 57 31 119 42
215 40 80 -3 105 -8 158 -32z m-33 -145 c3 -5 1 -11 -5 -15 -10 -6 -60 41 -60
57 0 10 55 -26 65 -42z m-123 -110 c22 -30 30 -53 33 -97 l4 -58 -13 50 c-17
66 -41 112 -80 154 l-31 35 29 -22 c16 -13 42 -40 58 -62z m184 41 c24 -37 26
-61 4 -61 -11 0 -59 83 -53 92 9 16 24 7 49 -31z m-866 -80 c1 -14 3 -52 7
-83 3 -32 2 -87 -2 -124 l-7 -65 -24 15 c-34 23 -47 20 -30 -7 9 -12 39 -37
68 -54 58 -34 165 -56 257 -52 28 2 54 0 58 -4 3 -4 0 -7 -7 -7 -8 0 -33 -10
-57 -21 -35 -17 -57 -20 -106 -17 -34 3 -71 8 -82 12 -20 7 -20 7 0 -4 11 -5
33 -14 49 -20 21 -8 26 -14 18 -22 -8 -8 -24 -7 -59 2 -68 20 -150 100 -159
157 -9 61 -28 42 -20 -20 6 -45 6 -48 -9 -34 -8 9 -23 18 -33 21 -9 3 -28 22
-42 42 l-24 37 24 16 c85 57 150 158 150 232 0 30 3 37 15 33 8 -4 15 -18 15
-33z m-56 -8 c-21 -88 -82 -171 -150 -204 -52 -25 -145 -30 -182 -10 -21 11
-22 11 -16 -16 28 -118 141 -232 279 -284 76 -28 64 -35 -15 -9 -162 54 -266
185 -287 360 -5 41 -4 43 9 26 12 -16 24 -18 74 -14 76 6 129 32 165 81 25 34
100 94 122 96 4 1 4 -11 1 -26z m-174 -58 c0 -4 -7 -19 -15 -34 -14 -29 -57
-49 -63 -30 -3 6 -9 6 -18 -2 -11 -9 -14 -7 -14 11 0 12 5 20 12 18 7 -3 28 6
47 19 33 22 51 29 51 18z m-209 -177 c15 -40 31 -85 37 -100 13 -32 98 -119
160 -165 37 -26 41 -32 25 -37 -56 -18 -230 47 -303 112 -59 52 -75 93 -67
176 9 92 10 94 70 91 l52 -3 26 -74z m1426 2 c-1 -10 -5 -16 -9 -14 -4 3 -8
-4 -8 -15 0 -12 -5 -21 -11 -21 -7 0 -8 7 -3 18 4 9 7 27 7 39 -1 14 4 20 12
16 8 -2 13 -13 12 -23z m-1192 -64 c12 -17 40 -41 63 -54 23 -13 42 -29 42
-36 0 -19 -22 -36 -45 -36 -32 0 -110 56 -145 103 -39 54 -39 74 1 75 17 0 34
4 38 7 3 4 10 -1 16 -10 5 -10 19 -31 30 -49z m-114 -10 c29 -67 120 -136 179
-136 26 0 71 50 65 71 -4 10 9 3 32 -19 21 -20 52 -46 68 -58 l30 -21 -48 -21
c-35 -15 -62 -20 -93 -17 -45 4 -144 50 -144 67 0 4 -6 8 -13 8 -17 0 -64 45
-72 70 -3 11 -11 20 -16 20 -5 0 -9 6 -9 14 0 7 -7 19 -15 26 -20 16 -19 40 1
40 8 0 24 -19 35 -44z"/>
<path d="M2062 1542 c44 -29 107 -91 135 -133 30 -46 40 -51 18 -9 -30 58
-140 160 -172 160 -4 0 4 -8 19 -18z"/>
<path d="M1055 1108 c-11 -7 -42 -17 -70 -24 -39 -10 -43 -12 -20 -13 29 -1
115 32 115 44 0 7 -2 6 -25 -7z"/>
<path d="M1012 962 c17 -25 82 -75 111 -85 28 -10 20 1 -14 18 -16 9 -49 33
-72 53 -26 23 -35 28 -25 14z"/>
<path d="M1955 2470 c-3 -5 14 -15 37 -21 24 -7 54 -20 68 -28 15 -10 21 -11
16 -3 -6 11 -97 62 -110 62 -3 0 -7 -4 -11 -10z"/>
<path d="M2136 2364 c28 -27 60 -62 72 -79 12 -16 21 -25 22 -20 0 15 -98 123
-123 137 -12 6 1 -11 29 -38z"/>
<path d="M771 2323 c-53 -59 -88 -133 -102 -212 -9 -51 -9 -67 5 -94 l16 -32
0 75 c0 92 35 174 105 248 25 27 45 52 45 56 0 19 -32 0 -69 -41z"/>
<path d="M1715 2330 c-7 -11 -2 -13 60 -29 52 -14 68 -14 63 1 -9 25 -111 48
-123 28z"/>
<path d="M2183 2270 c47 -76 67 -135 77 -221 l9 -74 -3 82 c-2 68 -8 92 -34
145 -17 35 -43 77 -57 93 -20 23 -18 18 8 -25z"/>
<path d="M2265 2271 c-3 -6 6 -37 20 -70 19 -47 25 -78 25 -135 0 -107 -26
-172 -98 -243 -55 -54 -56 -55 -15 -29 46 31 81 76 115 151 31 69 31 187 -1
267 -23 60 -35 75 -46 59z"/>
<path d="M1966 1375 c21 -27 40 -52 41 -54 2 -2 3 0 3 6 0 6 -18 30 -41 54
l-41 44 38 -50z"/>
<path d="M1550 1371 c82 -5 132 -13 174 -28 110 -41 131 -69 123 -156 -3 -39
-11 -56 -39 -83 -39 -40 -131 -69 -183 -60 -20 4 -43 1 -61 -9 -27 -14 -25
-15 56 -11 107 6 136 12 181 43 50 33 73 87 67 158 -4 49 -9 61 -40 88 -56 51
-88 60 -248 62 -143 2 -143 2 -30 -4z"/>
<path d="M2421 1216 c-1 -134 -88 -301 -212 -407 -113 -97 -276 -176 -417
-203 -58 -12 -63 -14 -39 -21 15 -4 38 -5 52 -3 13 3 22 2 20 -2 -3 -4 -33
-13 -68 -20 -85 -16 -111 -34 -37 -25 54 6 121 21 230 52 94 27 290 132 340
183 37 37 40 52 5 19 -22 -20 -47 -39 -55 -43 -8 -3 -33 -17 -55 -30 -58 -35
-127 -67 -133 -62 -2 3 17 18 42 33 26 15 64 43 84 60 20 18 40 33 44 33 19 0
155 172 163 205 10 44 19 65 28 65 6 0 8 3 5 6 -4 3 0 21 8 40 8 19 12 39 9
44 -3 5 -2 11 2 13 11 7 4 127 -7 127 -5 0 -8 -29 -9 -64z m-386 -574 c-6 -5
-30 -17 -55 -26 -90 -36 -110 -29 -27 9 51 23 100 33 82 17z"/>
<path d="M2105 979 c-62 -62 -154 -119 -305 -184 -64 -28 -145 -67 -181 -87
-67 -38 -162 -126 -188 -175 -8 -17 14 1 55 43 86 89 150 130 312 200 195 85
285 144 342 225 30 42 21 36 -35 -22z"/>
<path d="M630 861 c82 -116 259 -202 410 -200 103 2 125 15 25 15 -118 1 -200
23 -285 78 -72 47 -152 120 -142 130 3 3 -2 6 -12 6 -16 0 -15 -3 4 -29z"/>
</g>
</svg>
